<svg width="23" height="20" viewBox="0 0 23 20" fill="none" xmlns="http://www.w3.org/2000/svg">
<path d="M22.9924 1.94923C22.9925 1.7726 22.9458 1.59909 22.8571 1.44637C22.7683 1.29366 22.6407 1.1672 22.4871 1.07986C22.3336 0.992525 22.1597 0.947439 21.983 0.949194C21.8064 0.950948 21.6334 0.999481 21.4816 1.08985C20.8963 1.43823 20.2662 1.70503 19.6086 1.88285C18.6696 1.07708 17.472 0.636153 16.2347 0.640659C14.8772 0.642222 13.5735 1.17125 12.5989 2.11604C11.6242 3.06083 11.0548 4.34742 11.011 5.70414C8.335 5.2774 5.90965 3.88066 4.19747 1.78028C4.09431 1.65511 3.96256 1.55659 3.81333 1.49303C3.6641 1.42946 3.50178 1.40271 3.34005 1.41503C3.17841 1.42834 3.02244 1.48082 2.88564 1.56794C2.74884 1.65506 2.63532 1.77419 2.55489 1.91503C2.14242 2.63484 1.90552 3.44179 1.86344 4.27034C1.82136 5.09889 1.97528 5.92568 2.3127 6.68358L2.31075 6.68553C2.1591 6.77893 2.03394 6.90969 1.94725 7.06528C1.86057 7.22087 1.81525 7.3961 1.81563 7.57421C1.81379 7.72114 1.82261 7.86801 1.842 8.01366C1.94414 9.27193 2.50178 10.4497 3.41036 11.3262C3.34872 11.4436 3.3111 11.5721 3.2997 11.7042C3.2883 11.8364 3.30334 11.9694 3.34395 12.0957C3.74006 13.3298 4.58245 14.3718 5.70626 15.0176C4.5645 15.4591 3.33168 15.613 2.11641 15.4658C1.89148 15.4376 1.66364 15.4866 1.47026 15.6049C1.27688 15.7232 1.12944 15.9037 1.05212 16.1168C0.974813 16.3299 0.97222 16.563 1.04477 16.7777C1.11732 16.9925 1.26071 17.1762 1.45141 17.2988C3.5415 18.645 5.97509 19.3607 8.46118 19.3604C11.2804 19.3921 14.0311 18.4912 16.2854 16.7978C18.5397 15.1044 20.1711 12.7135 20.926 9.99703C21.2791 8.81367 21.4593 7.5855 21.4612 6.35059C21.4612 6.28516 21.4612 6.21778 21.4602 6.1504C21.9823 5.58733 22.3868 4.9257 22.6499 4.2043C22.913 3.48289 23.0294 2.71622 22.9924 1.94923ZM19.6857 5.16114C19.5206 5.35648 19.437 5.60794 19.4523 5.86329C19.4621 6.02829 19.4611 6.19429 19.4611 6.35059C19.4591 7.39413 19.3061 8.43189 19.007 9.43165C18.3905 11.743 17.0162 13.7807 15.1041 15.2182C13.192 16.6558 10.8529 17.4101 8.46118 17.3604C7.60206 17.3606 6.7459 17.2597 5.9104 17.0596C6.97581 16.7162 7.97199 16.1869 8.85278 15.4961C9.01501 15.3684 9.13373 15.1936 9.19267 14.9957C9.2516 14.7978 9.24786 14.5865 9.18195 14.3908C9.11605 14.1952 8.99121 14.0247 8.82456 13.9028C8.65791 13.7809 8.45762 13.7135 8.25118 13.71C7.42001 13.697 6.62631 13.362 6.03731 12.7754C6.18673 12.7471 6.33517 12.7119 6.48263 12.6699C6.69864 12.6084 6.88767 12.476 7.01929 12.2941C7.15091 12.1121 7.21745 11.8911 7.2082 11.6667C7.19896 11.4423 7.11446 11.2275 6.96831 11.057C6.82217 10.8865 6.62289 10.7701 6.40255 10.7266C5.92009 10.6313 5.4661 10.426 5.07586 10.1268C4.68563 9.82747 4.36967 9.44223 4.15255 9.00098C4.33328 9.02565 4.51516 9.04097 4.69747 9.04688C4.91405 9.05015 5.12606 8.98445 5.30285 8.85928C5.47963 8.73411 5.61202 8.55596 5.68087 8.35059C5.74685 8.14335 5.74345 7.92025 5.6712 7.71512C5.59894 7.50999 5.46177 7.33401 5.28048 7.21387C4.84063 6.92084 4.48032 6.52329 4.23184 6.05683C3.98335 5.59036 3.85444 5.06955 3.85665 4.54103C3.85665 4.47463 3.8586 4.40822 3.86251 4.34279C6.10377 6.43304 9.01083 7.66524 12.0715 7.82228C12.226 7.82837 12.3799 7.79927 12.5215 7.73718C12.6631 7.67509 12.7887 7.58164 12.8889 7.46388C12.9881 7.34498 13.0583 7.20469 13.0941 7.05404C13.1298 6.90339 13.1301 6.7465 13.0949 6.59572C13.0377 6.35708 13.0085 6.11259 13.008 5.8672C13.0089 5.01173 13.3491 4.19157 13.954 3.58667C14.5589 2.98176 15.3791 2.64153 16.2346 2.64063C16.6747 2.63945 17.1103 2.72953 17.5139 2.90518C17.9174 3.08082 18.2802 3.33823 18.5793 3.66114C18.6946 3.78522 18.8398 3.87773 19.001 3.92987C19.1622 3.98202 19.334 3.99205 19.5002 3.95903C19.911 3.87909 20.3159 3.77142 20.7121 3.63677C20.4418 4.18974 20.0964 4.70272 19.6857 5.16114Z" fill="white"/>
</svg>
