<svg width="108" height="20" viewBox="0 0 108 20" fill="none" xmlns="http://www.w3.org/2000/svg">
<path d="M9.42937 1.75623C9.60898 1.20344 10.391 1.20344 10.5706 1.75623L12.1104 6.49524C12.1908 6.74245 12.4211 6.90983 12.6811 6.90983H17.664C18.2452 6.90983 18.4869 7.6536 18.0166 7.99524L13.9854 10.9241C13.7751 11.0769 13.6871 11.3477 13.7674 11.5949L15.3072 16.3339C15.4868 16.8867 14.8541 17.3464 14.3839 17.0048L10.3527 14.0759C10.1424 13.9231 9.85762 13.9231 9.64733 14.0759L5.61609 17.0048C5.14586 17.3464 4.51317 16.8867 4.69278 16.3339L6.23258 11.5949C6.3129 11.3477 6.22491 11.0769 6.01462 10.9241L1.98337 7.99524C1.51315 7.6536 1.75481 6.90983 2.33605 6.90983H7.31893C7.57887 6.90983 7.80924 6.74245 7.88957 6.49524L9.42937 1.75623Z" fill="#FFEA28"/>
<path d="M31.4294 1.75623C31.609 1.20344 32.391 1.20344 32.5706 1.75623L34.1104 6.49524C34.1908 6.74245 34.4211 6.90983 34.6811 6.90983H39.664C40.2452 6.90983 40.4869 7.6536 40.0166 7.99524L35.9854 10.9241C35.7751 11.0769 35.6871 11.3477 35.7674 11.5949L37.3072 16.3339C37.4868 16.8867 36.8541 17.3464 36.3839 17.0048L32.3527 14.0759C32.1424 13.9231 31.8576 13.9231 31.6473 14.0759L27.6161 17.0048C27.1459 17.3464 26.5132 16.8867 26.6928 16.3339L28.2326 11.5949C28.3129 11.3477 28.2249 11.0769 28.0146 10.9241L23.9834 7.99524C23.5131 7.6536 23.7548 6.90983 24.336 6.90983H29.3189C29.5789 6.90983 29.8092 6.74245 29.8896 6.49524L31.4294 1.75623Z" fill="#FFEA28"/>
<path d="M53.4294 1.75623C53.609 1.20344 54.391 1.20344 54.5706 1.75623L56.1104 6.49524C56.1908 6.74245 56.4211 6.90983 56.6811 6.90983H61.664C62.2452 6.90983 62.4869 7.6536 62.0166 7.99524L57.9854 10.9241C57.7751 11.0769 57.6871 11.3477 57.7674 11.5949L59.3072 16.3339C59.4868 16.8867 58.8541 17.3464 58.3839 17.0048L54.3527 14.0759C54.1424 13.9231 53.8576 13.9231 53.6473 14.0759L49.6161 17.0048C49.1459 17.3464 48.5132 16.8867 48.6928 16.3339L50.2326 11.5949C50.3129 11.3477 50.2249 11.0769 50.0146 10.9241L45.9834 7.99524C45.5131 7.6536 45.7548 6.90983 46.336 6.90983H51.3189C51.5789 6.90983 51.8092 6.74245 51.8896 6.49524L53.4294 1.75623Z" fill="#FFEA28"/>
<path d="M75.4294 1.75623C75.609 1.20344 76.391 1.20344 76.5706 1.75623L78.1104 6.49524C78.1908 6.74245 78.4211 6.90983 78.6811 6.90983H83.664C84.2452 6.90983 84.4869 7.6536 84.0166 7.99524L79.9854 10.9241C79.7751 11.0769 79.6871 11.3477 79.7674 11.5949L81.3072 16.3339C81.4868 16.8867 80.8541 17.3464 80.3839 17.0048L76.3527 14.0759C76.1424 13.9231 75.8576 13.9231 75.6473 14.0759L71.6161 17.0048C71.1459 17.3464 70.5132 16.8867 70.6928 16.3339L72.2326 11.5949C72.3129 11.3477 72.2249 11.0769 72.0146 10.9241L67.9834 7.99524C67.5131 7.6536 67.7548 6.90983 68.336 6.90983H73.3189C73.5789 6.90983 73.8092 6.74245 73.8896 6.49524L75.4294 1.75623Z" fill="#FFEA28"/>
<path d="M97.4294 1.75623C97.609 1.20344 98.391 1.20344 98.5706 1.75623L100.11 6.49524C100.191 6.74245 100.421 6.90983 100.681 6.90983H105.664C106.245 6.90983 106.487 7.6536 106.017 7.99524L101.985 10.9241C101.775 11.0769 101.687 11.3477 101.767 11.5949L103.307 16.3339C103.487 16.8867 102.854 17.3464 102.384 17.0048L98.3527 14.0759C98.1424 13.9231 97.8576 13.9231 97.6473 14.0759L93.6161 17.0048C93.1459 17.3464 92.5132 16.8867 92.6928 16.3339L94.2326 11.5949C94.3129 11.3477 94.2249 11.0769 94.0146 10.9241L89.9834 7.99524C89.5131 7.6536 89.7548 6.90983 90.336 6.90983H95.3189C95.5789 6.90983 95.8092 6.74245 95.8896 6.49524L97.4294 1.75623Z" fill="#C1C1C1"/>
</svg>
